<svg width="492" height="494" viewBox="0 0 492 494" fill="none" xmlns="http://www.w3.org/2000/svg">
<g clip-path="url(#clip0_44_2)">
<path d="M390.241 -0.00050354H6.75993C4.95227 0.0170506 3.22537 0.750173 1.95808 2.03805C0.690795 3.32592 -0.0134243 5.06337 -5.7266e-05 6.86926V267.145C-0.0105152 268.948 0.695101 270.683 1.96218 271.968C3.22925 273.252 4.95449 273.983 6.75993 274H390.241C392.046 273.983 393.772 273.252 395.039 271.967C396.306 270.682 397.011 268.948 397.001 267.145V6.86926C397.014 5.06354 396.31 3.32624 395.043 2.03839C393.776 0.75055 392.049 0.0173117 390.242 -0.00050354H390.241Z" fill="#26667F"/>
<path d="M379.156 1.56911H7.41487C5.67544 1.57239 4.00838 2.26492 2.77948 3.49472C1.55059 4.72453 0.860245 6.39113 0.859985 8.12882V256.67C0.862481 258.406 1.5539 260.07 2.78263 261.298C4.01137 262.525 5.67718 263.216 7.41487 263.219H379.156C380.894 263.216 382.56 262.525 383.788 261.298C385.017 260.07 385.709 258.406 385.711 256.67V8.12932C385.711 6.3921 385.021 4.72587 383.793 3.49613C382.565 2.26638 380.898 1.57354 379.159 1.5696L379.156 1.56911Z" fill="white"/>
<path d="M99.7573 22.3238C105.847 22.3238 111.799 24.1277 116.862 27.5073C121.925 30.8869 125.872 35.6906 128.202 41.3107C130.532 46.9308 131.142 53.1151 129.954 59.0814C128.766 65.0477 125.834 70.5281 121.528 74.8296C117.222 79.1311 111.736 82.0604 105.764 83.2472C99.7915 84.434 93.601 83.8249 87.9752 81.4969C82.3494 79.169 77.541 75.2268 74.158 70.1688C70.7749 65.1108 68.9692 59.1642 68.9692 53.081C68.9692 44.9237 72.213 37.1004 77.9869 31.3324C83.7607 25.5643 91.5918 22.3238 99.7573 22.3238Z" fill="#26667F"/>
<path d="M99.7573 24.6896C105.378 24.6896 110.873 26.3547 115.547 29.4744C120.22 32.5941 123.863 37.0282 126.014 42.2161C128.165 47.4039 128.728 53.1125 127.631 58.6199C126.535 64.1273 123.828 69.1861 119.853 73.1567C115.879 77.1273 110.815 79.8313 105.302 80.9268C99.7888 82.0223 94.0745 81.4601 88.8815 79.3112C83.6884 77.1623 79.2498 73.5233 76.127 68.8544C73.0042 64.1854 71.3374 58.6963 71.3374 53.081C71.3374 45.5511 74.3316 38.3297 79.6614 33.0052C84.9912 27.6808 92.2199 24.6896 99.7573 24.6896Z" fill="#DDF4E7"/>
<path d="M100.222 67.1598H100.209C99.4228 67.1586 98.6456 66.9908 97.9288 66.6676C97.2121 66.3443 96.572 65.873 96.0509 65.2846C95.922 65.1759 95.8279 65.0318 95.7802 64.8702C95.7325 64.7085 95.7334 64.5365 95.7827 64.3753C95.9493 64.0395 96.1769 63.7375 96.4541 63.4848C96.6031 63.3261 96.7699 63.1465 96.9373 62.9486L97.0907 62.9397H103.338C103.438 63.0265 103.534 63.1083 103.627 63.1877L103.634 63.1931C103.905 63.4144 104.163 63.6518 104.406 63.904C104.51 63.9884 104.592 64.0951 104.648 64.2161C104.704 64.3371 104.732 64.4692 104.73 64.6025C104.727 64.7357 104.694 64.8667 104.634 64.9855C104.573 65.1042 104.486 65.2077 104.38 65.2881C103.859 65.8758 103.218 66.3465 102.502 66.6691C101.785 66.9917 101.008 67.159 100.222 67.1598ZM111.395 61.5288H89.0367C88.7125 61.5335 88.3972 61.4233 88.1468 61.2177C87.9201 61.0252 87.7584 60.7674 87.684 60.4796C87.6085 60.1916 87.6231 59.8874 87.7257 59.608C87.8425 59.3046 88.0629 59.0523 88.3479 58.8956C88.598 58.7598 88.8608 58.6487 89.1325 58.5637C89.4875 58.4811 89.8103 58.296 90.0606 58.0314C90.2558 57.652 90.3787 57.2397 90.4231 56.8155L90.434 56.754V51.6086C90.5155 49.7742 91.0447 47.9876 91.9755 46.4043C92.9064 44.8211 94.2107 43.4892 95.7748 42.5248L96.1224 42.3194L96.1368 42.2589C96.237 41.8571 96.422 41.4813 96.6795 41.1568C96.9369 40.8323 97.2608 40.5665 97.6295 40.3773C98.0069 40.1673 98.408 40.0029 98.8243 39.8876C99.2512 39.7675 99.6869 39.6811 100.127 39.6292L100.382 39.6054C100.975 39.7358 101.555 39.9203 102.115 40.1565C102.58 40.347 103.017 40.5986 103.415 40.9046C103.796 41.1826 104.082 41.5711 104.235 42.0173L104.298 42.2574L104.311 42.3179C105.853 43.1963 107.166 44.4271 108.141 45.9096C109.118 47.3974 109.732 49.094 109.933 50.8625L109.972 51.2668L109.998 51.6736V55.8L109.933 56.7545C109.934 56.772 109.934 56.7896 109.933 56.8071V56.812C109.908 57.0303 109.928 57.2513 109.993 57.4613C110.057 57.6714 110.164 57.8659 110.307 58.0329C110.54 58.2169 110.81 58.3485 111.098 58.4188C111.367 58.4949 111.623 58.6092 111.859 58.7582L112.086 58.8976C112.358 59.0481 112.571 59.2853 112.692 59.5712C112.8 59.835 112.826 60.1252 112.765 60.4037C112.708 60.6847 112.569 60.9426 112.365 61.1448C112.147 61.3582 111.862 61.4906 111.558 61.5204L111.395 61.5288ZM85.8958 49.3941C85.6288 49.3944 85.3649 49.3377 85.1216 49.2279C84.8939 49.1263 84.6891 48.9797 84.5197 48.7968C84.3576 48.6218 84.2317 48.4164 84.1493 48.1926C84.0673 47.9715 84.0304 47.7364 84.0408 47.5009C84.0511 47.2654 84.1084 47.0344 84.2094 46.8214C84.873 45.4116 85.6861 44.0769 86.6347 42.8403C87.5881 41.5992 88.6704 40.4624 89.8635 39.4491C90.2377 39.1337 90.72 38.9759 91.2085 39.0091C91.697 39.0424 92.1535 39.264 92.4814 39.6272C92.6413 39.8055 92.7636 40.0142 92.8412 40.2407C92.9187 40.4673 92.9498 40.7071 92.9327 40.9459C92.9156 41.1847 92.8507 41.4176 92.7417 41.6308C92.6326 41.844 92.4818 42.0332 92.2982 42.187C91.3026 43.0317 90.3995 43.9795 89.6042 45.0147C88.8135 46.0463 88.1356 47.1596 87.5822 48.3354C87.4309 48.6574 87.1883 48.9279 86.8845 49.1133C86.5873 49.2965 86.245 49.3937 85.8958 49.3941ZM113.956 49.3941C113.631 49.3933 113.315 49.2962 113.046 49.1153C112.762 48.9231 112.539 48.653 112.405 48.3374C111.902 47.17 111.281 46.0573 110.55 45.0166C109.828 43.99 108.999 43.0423 108.078 42.189C107.732 41.8654 107.523 41.4215 107.495 40.9488C107.461 40.4735 107.608 40.0029 107.908 39.6321C108.061 39.438 108.257 39.2807 108.479 39.1718C108.702 39.0629 108.946 39.0051 109.193 39.0026C109.608 39.0054 110.007 39.1649 110.309 39.4491C111.414 40.4723 112.408 41.6092 113.275 42.8408C114.152 44.088 114.899 45.422 115.502 46.8219C115.693 47.2624 115.71 47.758 115.552 48.2109C115.479 48.4307 115.363 48.6339 115.211 48.8088C115.058 48.9837 114.873 49.127 114.666 49.2304C114.445 49.3386 114.202 49.3946 113.956 49.3941Z" fill="#26667F"/>
<path d="M156.338 57.0496H322.366C325.641 57.0496 328.296 60.6031 328.296 64.987C328.296 69.3709 325.641 72.9243 322.366 72.9243H156.338C153.063 72.9243 150.409 69.3709 150.409 64.987C150.409 60.6031 153.063 57.0496 156.338 57.0496Z" fill="#DDF4E7"/>
<path d="M335.192 111.123H50.1543C46.8632 111.123 44.1953 113.788 44.1953 117.076V236.632C44.1953 239.92 46.8632 242.585 50.1543 242.585H335.192C338.483 242.585 341.151 239.92 341.151 236.632V117.076C341.151 113.788 338.483 111.123 335.192 111.123Z" fill="#DDF4E7"/>
<path d="M158.354 33.2376H256.181C258.288 33.2376 260.309 34.0739 261.799 35.5624C263.289 37.051 264.126 39.0698 264.126 41.175C264.126 43.2801 263.289 45.299 261.799 46.7875C260.309 48.276 258.288 49.1123 256.181 49.1123H158.354C156.247 49.1123 154.226 48.276 152.736 46.7875C151.246 45.299 150.409 43.2801 150.409 41.175C150.409 39.0698 151.246 37.051 152.736 35.5624C154.226 34.0739 156.247 33.2376 158.354 33.2376Z" fill="#26667F"/>
<path d="M116.696 139.4H63.0654C61.4199 139.4 60.0859 140.732 60.0859 142.376V160.235C60.0859 161.879 61.4199 163.212 63.0654 163.212H116.696C118.342 163.212 119.676 161.879 119.676 160.235V142.376C119.676 140.732 118.342 139.4 116.696 139.4Z" fill="white"/>
<path d="M116.696 173.629H63.0654C61.4199 173.629 60.0859 174.962 60.0859 176.606V194.465C60.0859 196.109 61.4199 197.441 63.0654 197.441H116.696C118.342 197.441 119.676 196.109 119.676 194.465V176.606C119.676 174.962 118.342 173.629 116.696 173.629Z" fill="white"/>
<path d="M116.696 207.859H63.0654C61.4199 207.859 60.0859 209.192 60.0859 210.836V228.695C60.0859 230.339 61.4199 231.671 63.0654 231.671H116.696C118.342 231.671 119.676 230.339 119.676 228.695V210.836C119.676 209.192 118.342 207.859 116.696 207.859Z" fill="white"/>
<path d="M322.281 139.4H268.65C267.005 139.4 265.671 140.732 265.671 142.376V160.235C265.671 161.879 267.005 163.212 268.65 163.212H322.281C323.927 163.212 325.261 161.879 325.261 160.235V142.376C325.261 140.732 323.927 139.4 322.281 139.4Z" fill="white"/>
<path d="M322.281 173.629H268.65C267.005 173.629 265.671 174.962 265.671 176.606V194.465C265.671 196.109 267.005 197.441 268.65 197.441H322.281C323.927 197.441 325.261 196.109 325.261 194.465V176.606C325.261 174.962 323.927 173.629 322.281 173.629Z" fill="white"/>
<path d="M322.281 207.859H268.65C267.005 207.859 265.671 209.192 265.671 210.836V228.695C265.671 230.339 267.005 231.671 268.65 231.671H322.281C323.927 231.671 325.261 230.339 325.261 228.695V210.836C325.261 209.192 323.927 207.859 322.281 207.859Z" fill="white"/>
<path d="M253.753 139.4H200.122C198.477 139.4 197.143 140.732 197.143 142.376V160.235C197.143 161.879 198.477 163.212 200.122 163.212H253.753C255.398 163.212 256.732 161.879 256.732 160.235V142.376C256.732 140.732 255.398 139.4 253.753 139.4Z" fill="white"/>
<path d="M253.753 173.629H200.122C198.477 173.629 197.143 174.962 197.143 176.606V194.465C197.143 196.109 198.477 197.441 200.122 197.441H253.753C255.398 197.441 256.732 196.109 256.732 194.465V176.606C256.732 174.962 255.398 173.629 253.753 173.629Z" fill="white"/>
<path d="M253.753 207.859H200.122C198.477 207.859 197.143 209.192 197.143 210.836V228.695C197.143 230.339 198.477 231.671 200.122 231.671H253.753C255.398 231.671 256.732 230.339 256.732 228.695V210.836C256.732 209.192 255.398 207.859 253.753 207.859Z" fill="white"/>
<path d="M185.225 139.4H131.594C129.948 139.4 128.614 140.732 128.614 142.376V160.235C128.614 161.879 129.948 163.212 131.594 163.212H185.225C186.87 163.212 188.204 161.879 188.204 160.235V142.376C188.204 140.732 186.87 139.4 185.225 139.4Z" fill="#26667F"/>
<path d="M185.225 173.629H131.594C129.948 173.629 128.614 174.962 128.614 176.606V194.465C128.614 196.109 129.948 197.441 131.594 197.441H185.225C186.87 197.441 188.204 196.109 188.204 194.465V176.606C188.204 174.962 186.87 173.629 185.225 173.629Z" fill="white"/>
<path d="M185.225 207.859H131.594C129.948 207.859 128.614 209.192 128.614 210.836V228.695C128.614 230.339 129.948 231.671 131.594 231.671H185.225C186.87 231.671 188.204 230.339 188.204 228.695V210.836C188.204 209.192 186.87 207.859 185.225 207.859Z" fill="white"/>
<path d="M158.409 128.982C161.7 128.982 164.368 126.317 164.368 123.029C164.368 119.741 161.7 117.076 158.409 117.076C155.118 117.076 152.45 119.741 152.45 123.029C152.45 126.317 155.118 128.982 158.409 128.982Z" fill="#26667F"/>
<path d="M226.938 128.982C230.229 128.982 232.896 126.317 232.896 123.029C232.896 119.741 230.229 117.076 226.938 117.076C223.646 117.076 220.979 119.741 220.979 123.029C220.979 126.317 223.646 128.982 226.938 128.982Z" fill="#26667F"/>
</g>
<path d="M389.716 284.757L392.411 296.435C392.411 296.435 391.511 323.384 398.699 320.689C405.887 317.994 404.089 294.639 404.089 294.639L397.801 282.961L389.716 284.757Z" fill="#DDF4E7"/>
<path d="M429.69 156.751C439.612 156.751 447.656 148.707 447.656 138.785C447.656 128.863 439.612 120.819 429.69 120.819C419.768 120.819 411.724 128.863 411.724 138.785C411.724 148.707 419.768 156.751 429.69 156.751Z" fill="#DDF4E7"/>
<path d="M443.611 143.725L445.411 169.775L422.954 172.47C422.954 172.47 422.954 150.911 421.154 148.216C419.354 145.521 443.611 143.725 443.611 143.725Z" fill="#DDF4E7"/>
<path d="M413.572 178.57L393.81 177.654C393.81 177.654 387.52 179.445 383.01 196.509C378.5 213.573 377.581 241.419 377.581 241.419L388.317 291.733L401.793 289.948L396.446 241.436L405.457 209.105L413.572 178.57Z" fill="#F4F7F7"/>
<path d="M470.16 184.004L479.9 187.05C479.9 187.05 488.112 199.294 488.106 205.582C488.1 211.87 491.652 259.482 491.652 259.482L468.263 298.088L461.093 279.218L475.487 254.977L463.836 225.32L470.16 184.004Z" fill="#F4F7F7"/>
<path d="M403.64 272.63L468.224 266.948C468.224 266.948 474.605 307.664 473.706 323.833C472.807 340.002 471.906 365.154 471.906 365.154L479.092 474.745L451.245 471.152L447.652 380.425L435.978 331.019L422.504 393.899L413.517 474.745L389.263 472.05L397.348 374.136C397.348 374.136 390.165 286.104 403.64 272.63Z" fill="#26667F"/>
<path d="M394.657 467.558L386.572 470.253C386.572 470.253 369.505 465.762 373.993 477.444C378.481 489.126 391.061 487.325 391.061 487.325C391.061 487.325 406.332 499.003 412.62 490.02L409.027 471.156L394.657 467.558Z" fill="#26667F"/>
<path d="M460.232 467.558L452.147 470.253C452.147 470.253 435.08 465.762 439.568 477.444C444.056 489.126 456.636 487.325 456.636 487.325C456.636 487.325 471.907 499.003 478.195 490.02L474.602 471.156L460.232 467.558Z" fill="#26667F"/>
<path d="M393.806 177.649L422.906 165.356C422.906 165.356 436.811 154.646 444.955 162.58L448.61 167.816C448.61 167.816 480.937 180.416 480.929 190.302L468.314 239.697C468.314 239.697 470.243 264.397 468.314 268.97L447.57 274.385L436.175 275.631L402.753 274.385C402.753 274.385 400.092 264.904 404.484 249.738L402.753 222.573L393.806 177.649Z" fill="#F4F7F7"/>
<path d="M441.89 150.911C441.89 150.911 459.078 138.634 450.075 123.901C443.829 113.68 430.886 114.489 423.544 115.943C421.566 116.308 419.706 117.148 418.125 118.392C416.544 119.636 415.29 121.245 414.47 123.082C413.242 125.947 413.242 128.811 418.153 128.811C427.975 128.811 423.064 136.177 423.064 136.177C423.064 136.177 429.612 137.814 427.975 143.543C426.338 149.272 441.89 150.911 441.89 150.911Z" fill="#26667F"/>
<defs>
<clipPath id="clip0_44_2">
<rect width="397" height="274" fill="white"/>
</clipPath>
</defs>
</svg>
